<?xml version="1.0" encoding="UTF-8"?>
<svg width="193px" height="51px" viewBox="0 0 193 51" version="1.1" xmlns="http://www.w3.org/2000/svg" xmlns:xlink="http://www.w3.org/1999/xlink">
    <!-- Generator: Sketch 46.2 (44496) - http://www.bohemiancoding.com/sketch -->
    <title>PP logo</title>
    <desc>Created with Sketch.</desc>
    <defs></defs>
    <g id="Page-1" stroke="none" stroke-width="1" fill="none" fill-rule="evenodd">
        <g id="Sprite" transform="translate(-817.000000, -293.000000)">
            <g id="PayPal-logos" transform="translate(817.000000, 293.000000)">
                <g id="PP-logo">
                    <path d="M149.210889,19.7605534 C148.625726,23.6746796 145.68921,23.6746796 142.849005,23.6746796 L141.233118,23.6746796 L142.366476,16.3673204 C142.435061,15.9251553 142.809118,15.6003398 143.248355,15.6003398 L143.989173,15.6003398 C145.922691,15.6003398 147.748711,15.6003398 148.689933,16.7213495 C149.253207,17.3922718 149.42394,18.3865243 149.210889,19.7605534 M147.974896,9.54966019 L137.263447,9.54966019 C136.531385,9.54966019 135.907795,10.0923398 135.793486,10.8286214 L131.462405,38.7860291 C131.376795,39.3376214 131.796089,39.8367282 132.344284,39.8367282 L137.839854,39.8367282 C138.35254,39.8367282 138.789345,39.4569515 138.869118,38.9415049 L140.097328,31.0152136 C140.21115,30.278932 140.83474,29.7362524 141.567289,29.7362524 L144.956661,29.7362524 C152.011694,29.7362524 156.083513,26.2608252 157.1478,19.3718641 C157.626923,16.3593981 157.167257,13.9921068 155.781447,12.3348544 C154.25798,10.5132136 151.55835,9.54966019 147.974896,9.54966019" id="Fill-1" fill="#009CDE"></path>
                    <path d="M72.8155047,19.7605534 C72.2303417,23.6746796 69.2938257,23.6746796 66.4536207,23.6746796 L64.8377343,23.6746796 L65.9710923,16.3673204 C66.0396775,15.9251553 66.4137343,15.6003398 66.8529714,15.6003398 L67.5937886,15.6003398 C69.5273072,15.6003398 71.3533269,15.6003398 72.2945491,16.7213495 C72.8578232,17.3922718 73.0285565,18.3865243 72.8155047,19.7605534 M71.5795121,9.54966019 L60.8680627,9.54966019 C60.136001,9.54966019 59.5124109,10.0923398 59.3981022,10.8286214 L55.0670207,38.7860291 C54.9814109,39.3376214 55.4002183,39.8367282 55.9488998,39.8367282 L61.063117,39.8367282 C61.7956652,39.8367282 62.4187689,39.2940485 62.5330775,38.557767 L63.7019442,31.0152136 C63.8162528,30.278932 64.4393565,29.7362524 65.1719047,29.7362524 L68.5612775,29.7362524 C75.6163096,29.7362524 79.6881294,26.2608252 80.7524158,19.3718641 C81.2315393,16.3593981 80.7718726,13.9921068 79.3860627,12.3348544 C77.862596,10.5132136 75.1629664,9.54966019 71.5795121,9.54966019" id="Fill-3" fill="#003087"></path>
                    <path d="M96.4459222,29.7974029 C95.9507469,32.7806553 93.6242012,34.7830243 90.6570407,34.7830243 C89.1690827,34.7830243 87.9783272,34.295801 87.2127025,33.3738398 C86.4538877,32.4593058 86.1683593,31.1570728 86.409137,29.7067913 C86.8712358,26.7497816 89.2347494,24.6830437 92.1571593,24.6830437 C93.6135,24.6830437 94.7959864,25.1747233 95.5762037,26.1055971 C96.362258,27.0429078 96.6706481,28.3540534 96.4459222,29.7974029 M103.59386,19.6355291 L98.4650506,19.6355291 C98.0253272,19.6355291 97.6512704,19.9603447 97.5831716,20.4025097 L97.3574728,21.862199 L96.9989815,21.3338786 C95.8879988,19.6924709 93.4126086,19.1438495 90.9406235,19.1438495 C85.2743198,19.1438495 80.4339568,23.5149951 79.4917617,29.6453932 C79.0014506,32.7039078 79.6975173,35.6267524 81.4009593,37.6667524 C82.966258,39.5408786 85.1998975,40.3212282 87.8606136,40.3212282 C92.4280951,40.3212282 94.9613691,37.3345097 94.9613691,37.3345097 L94.7322654,38.7852864 C94.6466556,39.3373738 95.065463,39.8364806 95.6141444,39.8364806 L100.233186,39.8364806 C100.965248,39.8364806 101.588838,39.2942961 101.703147,38.5580146 L104.47574,20.685733 C104.561349,20.1341408 104.142542,19.6355291 103.59386,19.6355291" id="Fill-5" fill="#003087"></path>
                    <path d="M172.841355,29.7974029 C172.34618,32.7806553 170.019634,34.7830243 167.052473,34.7830243 C165.564515,34.7830243 164.37376,34.295801 163.608135,33.3738398 C162.84932,32.4593058 162.563792,31.1570728 162.80457,29.7067913 C163.266182,26.7497816 165.630182,24.6830437 168.552592,24.6830437 C170.008933,24.6830437 171.191419,25.1747233 171.971636,26.1055971 C172.757204,27.0429078 173.066081,28.3540534 172.841355,29.7974029 M179.989293,19.6355291 L174.860483,19.6355291 C174.42076,19.6355291 174.046703,19.9603447 173.978118,20.4025097 L173.752905,21.862199 L173.394414,21.3338786 C172.283431,19.6924709 169.808041,19.1438495 167.336056,19.1438495 C161.669752,19.1438495 156.829389,23.5149951 155.887194,29.6453932 C155.396883,32.7039078 156.09295,35.6267524 157.796392,37.6667524 C159.361691,39.5408786 161.59533,40.3212282 164.256046,40.3212282 C168.823528,40.3212282 171.356802,37.3345097 171.356802,37.3345097 L171.127698,38.7852864 C171.042088,39.3373738 171.460896,39.8364806 172.009577,39.8364806 L176.628619,39.8364806 C177.360681,39.8364806 177.984271,39.2942961 178.09858,38.5580146 L180.871172,20.685733 C180.956782,20.1341408 180.537975,19.6355291 179.989293,19.6355291" id="Fill-7" fill="#009CDE"></path>
                    <path d="M130.91061,19.6352816 L125.755534,19.6352816 C125.262304,19.6352816 124.801178,19.8843398 124.524405,20.299767 L117.412948,30.9607476 L114.399092,20.7161845 C114.210847,20.0749709 113.631035,19.6352816 112.973395,19.6352816 L107.905874,19.6352816 C107.293958,19.6352816 106.863477,20.2482718 107.060963,20.8374951 L112.737482,37.7987087 L107.398052,45.4675243 C106.979245,46.0691262 107.401943,46.901466 108.126709,46.901466 L113.276921,46.901466 C113.7648,46.901466 114.222035,46.6578544 114.500267,46.2493592 L131.644618,21.0622913 C132.054669,20.459699 131.630998,19.6352816 130.91061,19.6352816" id="Fill-9" fill="#003087"></path>
                    <path d="M186.03442,10.317433 L181.638159,38.7863262 C181.553035,39.3379184 181.971843,39.8365301 182.520038,39.8365301 L186.941593,39.8365301 C187.673655,39.8365301 188.297245,39.2943456 188.411554,38.5580641 L192.74604,10.6001612 C192.83165,10.0485689 192.412843,9.54995728 191.864161,9.54995728 L186.9163,9.54995728 C186.477062,9.54995728 186.102519,9.87526796 186.03442,10.317433" id="Fill-11" fill="#009CDE"></path>
                    <path d="M36.94856,3.91363107 C34.6361205,1.23093204 30.4577748,0.0816990291 25.1125081,0.0816990291 L9.59620444,0.0816990291 C8.50321926,0.0816990291 7.57318469,0.891262136 7.40293778,1.98949515 L0.941824198,43.6961068 C0.814382222,44.5190388 1.4394316,45.2632427 2.25758963,45.2632427 L11.8366538,45.2632427 L14.2429723,29.7310194 L14.1680637,30.2177476 C14.338797,29.1195146 15.2610489,28.3104466 16.3535477,28.3104466 L20.9059501,28.3104466 C29.8478044,28.3104466 36.848844,24.612699 38.8947254,13.9185437 C38.9550415,13.6016505 39.0070884,13.2946602 39.0532983,12.9936117 C38.7950094,12.8539806 38.7950094,12.8539806 39.0532983,12.9931165 C39.6622958,9.03987379 39.0489205,6.35024272 36.94856,3.91363107" id="Fill-13" fill="#003087"></path>
                    <path d="M16.8279042,13.0458 C16.9300523,12.3852757 17.3469141,11.8440816 17.907756,11.570266 C18.16264,11.4459845 18.447682,11.3766641 18.7463437,11.3766641 L30.9092696,11.3766641 C32.3500449,11.3766641 33.6935363,11.4727223 34.9217462,11.6742466 C35.2729412,11.7316835 35.6144079,11.798033 35.9461462,11.8728 C36.2778844,11.9480621 36.5998943,12.0317417 36.9116894,12.124334 C37.0678301,12.1708777 37.2210523,12.2194019 37.3718425,12.2704019 C37.975003,12.4744019 38.5368178,12.7145476 39.0533956,12.9933146 C39.6623931,9.04007184 39.0490178,6.34994563 36.9486573,3.91382913 C34.6357314,1.2311301 30.4578721,0.0818970874 25.1126054,0.0818970874 L9.59581531,0.0818970874 C8.50331654,0.0818970874 7.57328198,0.890965049 7.40303506,1.9896932 L0.941921481,43.6958097 C0.814479506,44.5187417 1.43904247,45.2629456 2.25768691,45.2629456 L11.8367511,45.2629456 L14.2430696,29.7307223 L16.8279042,13.0458 Z" id="Fill-15" fill="#003087"></path>
                    <path d="M39.0533469,12.9933146 L39.0533469,12.9933146 C39.0066506,13.2948583 38.9550901,13.6018485 38.8947741,13.9182466 C36.8488926,24.6124019 29.8473667,28.3106447 20.9059988,28.3106447 L16.3531099,28.3106447 C15.2606111,28.3106447 14.3383593,29.1197126 14.1681123,30.2179456 L14.1681123,30.2179456 L11.8367025,45.2629456 L11.175658,49.5306058 C11.0637815,50.2505476 11.6105173,50.9016641 12.3265272,50.9016641 L20.4006086,50.9016641 C21.3564235,50.9016641 22.1697173,50.194101 22.3190481,49.2330233 L22.3978481,48.8151204 L23.9188827,38.9968777 L24.0171395,38.4546932 C24.165984,37.4936155 24.9797642,36.7855573 25.935579,36.7855573 L27.1433593,36.7855573 C34.9654753,36.7855573 41.0899864,33.5507709 42.8800111,24.1954893 C43.6276383,20.2858194 43.2409346,17.0228097 41.2636383,14.7288 C40.665342,14.035101 39.9211198,13.4612272 39.0533469,12.9933146" id="Fill-17" fill="#009CDE"></path>
                    <path d="M36.9118353,12.124433 C36.6000402,12.0318408 36.2780304,11.947666 35.9462921,11.872899 C35.6145538,11.7976369 35.2726007,11.7317825 34.9218921,11.6743456 C33.6931958,11.4728214 32.3501909,11.3767631 30.9089291,11.3767631 L18.7460032,11.3767631 C18.4473415,11.3767631 18.1627859,11.4460835 17.907902,11.570365 C17.3465736,11.8441806 16.9301983,12.3848796 16.8280501,13.045899 L14.2432156,29.7308214 L14.1683069,30.2180447 C14.3385538,29.1193165 15.2608057,28.3102485 16.3533044,28.3102485 L20.9061933,28.3102485 C29.8475612,28.3102485 36.8490872,24.612501 38.8944822,13.9183456 C38.9552847,13.6019476 39.0068452,13.2949573 39.0535415,12.9934136 C38.5364773,12.7146466 37.9751489,12.474501 37.3719884,12.270501 C37.2211983,12.219501 37.0674896,12.1709767 36.9118353,12.124433" id="Fill-19" fill="#012169"></path>
                </g>
            </g>
        </g>
    </g>
</svg>
